<svg width="0" height="0" class="hidden">
  <symbol fill="none" xmlns="http://www.w3.org/2000/svg" viewBox="0 0 56 56" id="star">
    <path d="M23.3338 1.72853e-05V-0.871094H22.4627V1.72853e-05H23.3338ZM32.6671 1.72853e-05H33.5382V-0.871094H32.6671V1.72853e-05ZM23.3338 16.7347L22.7178 17.3507L24.2049 18.8377V16.7347H23.3338ZM11.5004 4.90132L12.1164 4.28535L11.5004 3.66939L10.8845 4.28535L11.5004 4.90132ZM4.90076 11.501L4.28479 10.885L3.66882 11.501L4.28479 12.117L4.90076 11.501ZM16.733 23.3332V24.2043H18.836L17.349 22.7173L16.733 23.3332ZM2.02656e-06 23.3332V22.4621H-0.871109V23.3332H2.02656e-06ZM2.02656e-06 32.6666H-0.871109V33.5377H2.02656e-06V32.6666ZM16.7345 32.6666L17.3505 33.2826L18.8375 31.7954H16.7345V32.6666ZM4.90175 44.4993L4.28578 43.8834L3.66981 44.4993L4.28578 45.1153L4.90175 44.4993ZM11.5014 51.099L10.8855 51.715L11.5014 52.3309L12.1174 51.715L11.5014 51.099ZM23.3338 39.2666H24.2049V37.1635L22.7178 38.6506L23.3338 39.2666ZM23.3338 56H22.4627V56.8711H23.3338V56ZM32.6671 56V56.8711H33.5382V56H32.6671ZM32.6671 39.2673L33.2831 38.6514L31.796 37.1643V39.2673H32.6671ZM44.4987 51.099L43.8828 51.715L44.4987 52.3309L45.1147 51.715L44.4987 51.099ZM51.0984 44.4993L51.7144 45.1153L52.3303 44.4993L51.7144 43.8834L51.0984 44.4993ZM39.2656 32.6666V31.7954H37.1626L38.6497 33.2826L39.2656 32.6666ZM56 32.6666V33.5377H56.8711V32.6666H56ZM56 23.3332H56.8711V22.4621H56V23.3332ZM39.2671 23.3332L38.6512 22.7173L37.1641 24.2043H39.2671V23.3332ZM51.0994 11.501L51.7154 12.117L52.3313 11.501L51.7154 10.885L51.0994 11.501ZM44.4997 4.90132L45.1157 4.28535L44.4997 3.66939L43.8838 4.28535L44.4997 4.90132ZM32.6671 16.7339H31.796V18.837L33.2831 17.3499L32.6671 16.7339ZM23.3338 0.871128H32.6671V-0.871094H23.3338V0.871128ZM24.2049 16.7347V1.72853e-05H22.4627V16.7347H24.2049ZM10.8845 5.51729L22.7178 17.3507L23.9498 16.1187L12.1164 4.28535L10.8845 5.51729ZM5.51673 12.117L12.1164 5.51729L10.8845 4.28535L4.28479 10.885L5.51673 12.117ZM17.349 22.7173L5.51673 10.885L4.28479 12.117L16.117 23.9492L17.349 22.7173ZM2.02656e-06 24.2043H16.733V22.4621H2.02656e-06V24.2043ZM0.871113 32.6666V23.3332H-0.871109V32.6666H0.871113ZM16.7345 31.7954H2.02656e-06V33.5377H16.7345V31.7954ZM5.51772 45.1153L17.3505 33.2826L16.1185 32.0506L4.28578 43.8834L5.51772 45.1153ZM12.1174 50.483L5.51772 43.8834L4.28578 45.1153L10.8855 51.715L12.1174 50.483ZM22.7178 38.6506L10.8855 50.483L12.1174 51.715L23.9498 39.8825L22.7178 38.6506ZM24.2049 56V39.2666H22.4627V56H24.2049ZM32.6671 55.1289H23.3338V56.8711H32.6671V55.1289ZM31.796 39.2673V56H33.5382V39.2673H31.796ZM45.1147 50.483L33.2831 38.6514L32.0512 39.8833L43.8828 51.715L45.1147 50.483ZM50.4824 43.8834L43.8828 50.483L45.1147 51.715L51.7144 45.1153L50.4824 43.8834ZM38.6497 33.2826L50.4824 45.1153L51.7144 43.8834L39.8816 32.0506L38.6497 33.2826ZM56 31.7954H39.2656V33.5377H56V31.7954ZM55.1289 23.3332V32.6666H56.8711V23.3332H55.1289ZM39.2671 24.2043H56V22.4621H39.2671V24.2043ZM50.4834 10.885L38.6512 22.7173L39.8831 23.9492L51.7154 12.117L50.4834 10.885ZM43.8838 5.51729L50.4834 12.117L51.7154 10.885L45.1157 4.28535L43.8838 5.51729ZM33.2831 17.3499L45.1157 5.51729L43.8838 4.28535L32.0512 16.1179L33.2831 17.3499ZM31.796 1.72853e-05V16.7339H33.5382V1.72853e-05H31.796Z" fill="black"></path>
  </symbol>
  <symbol fill="none" xmlns="http://www.w3.org/2000/svg" viewBox="0 0 120 132" id="pointer">
    <g clip-path="url(#clip0_1_58)">
      <path d="M5.64754 97.1439L4.29932 97.8014L5.64754 97.1439ZM118.976 119.313C119.442 118.629 119.266 117.696 118.582 117.229L107.429 109.622C106.744 109.155 105.811 109.332 105.344 110.016C104.877 110.701 105.054 111.634 105.738 112.101L115.652 118.862L108.891 128.776C108.424 129.46 108.6 130.394 109.285 130.86C109.969 131.327 110.902 131.151 111.369 130.466L118.976 119.313ZM37.6445 1C36.4661 0.0719497 36.4657 0.0724371 36.4651 0.0731599C36.4647 0.0737152 36.4639 0.0746743 36.4631 0.0757839C36.4613 0.0780037 36.4588 0.0811633 36.4556 0.0852575C36.4492 0.0934458 36.4399 0.105373 36.4276 0.120995C36.4032 0.152239 36.3673 0.198267 36.3204 0.258737C36.2265 0.379675 36.0885 0.55839 35.9098 0.792149C35.5524 1.25965 35.0324 1.94741 34.3775 2.83356C33.068 4.60569 31.2187 7.1722 29.0532 10.3581C24.7244 16.7269 19.1217 25.586 14.0404 35.5332C8.96366 45.4713 4.37875 56.5505 2.12509 67.3516C-0.125479 78.1379 -0.0847499 88.8118 4.29932 97.8014L6.99575 96.4863C3.02 88.3341 2.88045 78.4191 5.06185 67.9643C7.24017 57.5243 11.6995 46.7103 16.712 36.8979C21.7198 27.0946 27.2513 18.3459 31.5344 12.0445C33.6748 8.8954 35.5009 6.36124 36.7903 4.61648C37.4349 3.74418 37.9451 3.06942 38.2932 2.61403C38.4673 2.38634 38.6008 2.21351 38.6902 2.09827C38.7349 2.04065 38.7687 1.99743 38.7909 1.96894C38.8021 1.9547 38.8103 1.94414 38.8157 1.93731C38.8184 1.9339 38.8203 1.93142 38.8215 1.92987C38.8221 1.9291 38.8225 1.92864 38.8228 1.92826C38.823 1.92804 38.823 1.92805 37.6445 1ZM4.29932 97.8014C9.29075 108.036 19.096 114.429 30.6929 118.319C42.2964 122.212 55.8859 123.669 68.7834 123.903C81.6957 124.137 93.9975 123.147 103.064 122.1C107.6 121.577 111.331 121.038 113.931 120.63C115.231 120.426 116.249 120.255 116.943 120.134C117.29 120.074 117.557 120.026 117.737 119.993C117.827 119.977 117.896 119.964 117.942 119.956C117.966 119.951 117.983 119.948 117.996 119.946C118.002 119.945 118.006 119.944 118.01 119.943C118.011 119.943 118.013 119.943 118.013 119.942C118.014 119.942 118.015 119.942 117.736 118.468C117.458 116.994 117.458 116.994 117.457 116.994C117.457 116.994 117.456 116.995 117.455 116.995C117.452 116.995 117.449 116.996 117.443 116.997C117.433 116.999 117.417 117.002 117.395 117.006C117.352 117.014 117.287 117.026 117.201 117.042C117.027 117.073 116.769 117.119 116.429 117.178C115.75 117.297 114.749 117.465 113.466 117.667C110.9 118.069 107.21 118.602 102.72 119.12C93.736 120.157 81.575 121.134 68.8379 120.903C56.0861 120.672 42.8398 119.23 31.647 115.475C20.4476 111.718 11.4959 105.714 6.99575 96.4863L4.29932 97.8014Z" fill="#111010"></path>
    </g>
    <defs>
      <clipPath id="clip0_1_58">
        <rect width="120" height="132" fill="white"></rect>
      </clipPath>
    </defs>
  </symbol>
  <symbol fill="none" xmlns="http://www.w3.org/2000/svg" viewBox="0 0 35 32" id="cart">
    <g clip-path="url(#clip0_1_29)">
      <path d="M15.9563 28.1755C15.9563 30.1552 14.3357 31.7604 12.3365 31.7604C10.3379 31.7604 8.71716 30.1553 8.71716 28.1755C8.71716 26.1955 10.3378 24.5903 12.3365 24.5903C14.3356 24.5903 15.9563 26.1954 15.9563 28.1755Z" fill="#111010"></path>
      <path d="M32.3813 28.1755C32.3813 30.1552 30.7607 31.7604 28.7616 31.7604C26.7625 31.7604 25.1422 30.1553 25.1422 28.1755C25.1422 26.1955 26.7625 24.5903 28.7616 24.5903C30.7606 24.5903 32.3813 26.1954 32.3813 28.1755Z" fill="#111010"></path>
      <path d="M34.8014 3.29365C34.6318 3.08617 34.3767 2.96553 34.1073 2.96553H14.591C14.0982 2.96553 13.6983 3.36154 13.6983 3.8498C13.6983 4.33801 14.0981 4.73405 14.591 4.73405H33.003L31.0798 13.6373C30.7071 14.7082 29.6951 15.4244 28.5483 15.4244L8.66802 15.4246L6.53119 3.04516C6.23723 1.34115 4.75693 0.104168 3.01164 0.104168H1.23542C0.742501 0.104168 0.342651 0.500169 0.342651 0.988427C0.342651 1.47669 0.742461 1.87269 1.23542 1.87269H3.01164C3.88424 1.87269 4.62462 2.49101 4.77154 3.34306L7.47937 19.0307C7.84699 21.1607 9.69749 22.7068 11.8792 22.7068H31.2951C31.788 22.7068 32.1879 22.3108 32.1879 21.8226C32.1879 21.3343 31.7881 20.9383 31.2951 20.9383H11.8792C10.5701 20.9383 9.45985 20.0108 9.23926 18.7325L8.97337 17.1924H28.5484C30.4843 17.1924 32.1894 15.9677 32.791 14.1453C32.8009 14.1159 32.8089 14.086 32.8155 14.0556L34.9804 4.03432C35.0368 3.77347 34.9712 3.50125 34.8016 3.29347L34.8014 3.29365Z" fill="#111010"></path>
    </g>
    <defs>
      <clipPath id="clip0_1_29">
        <rect width="35" height="32" fill="white"></rect>
      </clipPath>
    </defs>
  </symbol>
  <symbol xmlns="http://www.w3.org/2000/svg" viewBox="0 0 50 50" id="instagram">
    <path d="M 16 3 C 8.83 3 3 8.83 3 16 L 3 34 C 3 41.17 8.83 47 16 47 L 34 47 C 41.17 47 47 41.17 47 34 L 47 16 C 47 8.83 41.17 3 34 3 L 16 3 z M 37 11 C 38.1 11 39 11.9 39 13 C 39 14.1 38.1 15 37 15 C 35.9 15 35 14.1 35 13 C 35 11.9 35.9 11 37 11 z M 25 14 C 31.07 14 36 18.93 36 25 C 36 31.07 31.07 36 25 36 C 18.93 36 14 31.07 14 25 C 14 18.93 18.93 14 25 14 z M 25 16 C 20.04 16 16 20.04 16 25 C 16 29.96 20.04 34 25 34 C 29.96 34 34 29.96 34 25 C 34 20.04 29.96 16 25 16 z"></path>
  </symbol>
  <symbol xmlns="http://www.w3.org/2000/svg" viewBox="0 0 50 50" id="twitter">
    <path d="M 50.0625 10.4375 C 48.214844 11.257813 46.234375 11.808594 44.152344 12.058594 C 46.277344 10.785156 47.910156 8.769531 48.675781 6.371094 C 46.691406 7.546875 44.484375 8.402344 42.144531 8.863281 C 40.269531 6.863281 37.597656 5.617188 34.640625 5.617188 C 28.960938 5.617188 24.355469 10.21875 24.355469 15.898438 C 24.355469 16.703125 24.449219 17.488281 24.625 18.242188 C 16.078125 17.8125 8.503906 13.71875 3.429688 7.496094 C 2.542969 9.019531 2.039063 10.785156 2.039063 12.667969 C 2.039063 16.234375 3.851563 19.382813 6.613281 21.230469 C 4.925781 21.175781 3.339844 20.710938 1.953125 19.941406 C 1.953125 19.984375 1.953125 20.027344 1.953125 20.070313 C 1.953125 25.054688 5.5 29.207031 10.199219 30.15625 C 9.339844 30.390625 8.429688 30.515625 7.492188 30.515625 C 6.828125 30.515625 6.183594 30.453125 5.554688 30.328125 C 6.867188 34.410156 10.664063 37.390625 15.160156 37.472656 C 11.644531 40.230469 7.210938 41.871094 2.390625 41.871094 C 1.558594 41.871094 0.742188 41.824219 -0.0585938 41.726563 C 4.488281 44.648438 9.894531 46.347656 15.703125 46.347656 C 34.617188 46.347656 44.960938 30.679688 44.960938 17.09375 C 44.960938 16.648438 44.949219 16.199219 44.933594 15.761719 C 46.941406 14.3125 48.683594 12.5 50.0625 10.4375 Z"></path>
  </symbol>
  <symbol xmlns="http://www.w3.org/2000/svg" viewBox="0 0 72 72" id="facebook">
    <path d="M45.049,14C57.06,14,58,14.94,58,26.951v18.098C58,57.06,57.06,58,45.049,58h-2.298V41.982h5.647l0.888-6.347h-6.535	c0,0-0.01-3.716,0-4.643c0.019-1.814,1.533-2.732,2.835-2.718c1.302,0.013,3.998,0.004,3.998,0.004v-5.849	c0,0-2.335-0.302-4.784-0.328c-2.058-0.021-4.331,0.535-6.165,2.384c-1.865,1.88-2.16,4.679-2.195,8.1c-0.01,0.989,0,3.049,0,3.049	h-5.526v6.347h5.526V58h-9.489C14.94,58,14,57.06,14,45.049V26.951C14,14.94,14.94,14,26.951,14H45.049z"></path>
  </symbol>
</svg>